<svg width="37" height="30" viewBox="0 0 37 30" fill="none" xmlns="http://www.w3.org/2000/svg">
<path d="M27.5561 1.7305C27.499 1.77128 27.4283 1.78827 27.3589 1.77788C27.2895 1.76749 27.2268 1.73052 27.1841 1.6748C26.9295 1.83991 26.4143 2.8982 25.9707 4.15343C26.8878 3.64418 28.2285 2.81466 28.505 2.27954C28.5995 2.09697 28.6568 1.89744 28.6735 1.69254C28.6903 1.48764 28.6661 1.28147 28.6025 1.08598C28.5402 0.890767 28.4399 0.709781 28.3075 0.553429C28.175 0.397077 28.013 0.268435 27.8307 0.174892C27.6482 0.0800597 27.4488 0.0224353 27.2439 0.00536027C27.039 -0.0117147 26.8327 0.0121003 26.6371 0.0754291C26.4416 0.137767 26.2604 0.23826 26.104 0.371088C25.9477 0.503915 25.8192 0.66644 25.726 0.849258C25.6285 1.03824 25.4575 1.84389 25.6186 3.53278C25.6862 3.35772 25.7578 3.17272 25.8354 2.98573C26.48 1.41819 26.8519 1.16356 27.1304 1.1198C27.2256 1.10615 27.3227 1.12074 27.4097 1.16176C27.4967 1.20278 27.5698 1.26842 27.6198 1.35055C27.6408 1.37959 27.6558 1.41252 27.664 1.44742C27.6722 1.48231 27.6734 1.51849 27.6674 1.55384C27.6615 1.58919 27.6486 1.62302 27.6295 1.65334C27.6104 1.68367 27.5855 1.7099 27.5561 1.7305Z" fill="#B2B2B2"/>
<path d="M22.3384 3.22249C22.3358 3.29269 22.3062 3.35919 22.2558 3.40811C22.2054 3.45704 22.1381 3.48461 22.0678 3.48508C21.9959 3.48508 21.9269 3.45664 21.8758 3.40596C21.8248 3.35528 21.7958 3.28647 21.7953 3.21453C21.7879 3.11861 21.8091 3.02266 21.8562 2.93876C21.9033 2.85487 21.9742 2.78677 22.0599 2.74308C22.3105 2.61576 22.7621 2.60781 24.1983 3.50696C24.3634 3.6104 24.5266 3.71782 24.6778 3.81927C24.1745 2.95593 23.5021 1.9414 23.0446 1.70468C22.862 1.61017 22.6625 1.55289 22.4576 1.53615C22.2527 1.51942 22.0465 1.54357 21.851 1.60721C21.6556 1.66921 21.4745 1.76936 21.3181 1.90185C21.1617 2.03433 21.0332 2.19653 20.9399 2.37904C20.8451 2.56148 20.7874 2.76094 20.7704 2.96584C20.7533 3.17074 20.7771 3.37699 20.8404 3.5726C20.9025 3.76824 21.0029 3.94955 21.1357 4.10598C21.2686 4.2624 21.4313 4.3908 21.6143 4.48369C21.8132 4.59111 22.768 4.78208 24.7692 4.53939C23.6791 3.77352 22.6368 3.20857 22.3384 3.22249Z" fill="#B2B2B2"/>
<path d="M30.2201 5.9054L27.2858 6.84583L28.6961 11.2464L31.6305 10.306L30.2201 5.9054Z" fill="#B2B2B2"/>
<path d="M26.7692 7.01459L25.733 7.34668L27.1434 11.7473L28.1796 11.4152L26.7692 7.01459Z" fill="#B2B2B2"/>
<path d="M26.1158 5.01392L25.0797 5.34619L25.5498 6.81234L26.586 6.48007L26.1158 5.01392Z" fill="#B2B2B2"/>
<path d="M30.2729 3.70101L26.649 4.86243L27.1189 6.32866L30.7428 5.16725L30.2729 3.70101Z" fill="#B2B2B2"/>
<path d="M24.5772 5.52706L20.9532 6.68848L21.4232 8.15471L25.0471 6.99329L24.5772 5.52706Z" fill="#B2B2B2"/>
<path d="M26.0045 17.7282V12.8226H23.1181L21.7316 17.7282H26.0045Z" fill="#B2B2B2"/>
<path d="M29.631 12.8226H26.9853V17.7282H31.0175L29.631 12.8226Z" fill="#B2B2B2"/>
<path d="M22.0976 12.8226H19.243L16.7943 17.7282H20.7131L22.0976 12.8226Z" fill="#B2B2B2"/>
<path d="M36.1598 17.7282L33.7906 12.8226H30.6515L32.036 17.7282H36.1598Z" fill="#B2B2B2"/>
<path d="M23.0624 22.9977C22.46 22.9935 21.8806 23.2285 21.4513 23.651C21.022 24.0736 20.778 24.6492 20.7727 25.2516V29.994H25.348V25.2516C25.3428 24.6499 25.0993 24.0749 24.6708 23.6524C24.2424 23.23 23.664 22.9946 23.0624 22.9977Z" fill="#B2B2B2"/>
<path d="M33.6911 23.6145H29.2749V28.0307H33.6911V23.6145Z" fill="#B2B2B2"/>
<path d="M31.7874 19.6797C31.5305 20.1547 31.1477 20.5497 30.6809 20.8213C30.2142 21.0929 29.6816 21.2307 29.1417 21.2194C28.6021 21.2305 28.0698 21.0927 27.6035 20.8211C27.1371 20.5495 26.7546 20.1545 26.498 19.6797C26.242 20.1559 25.8596 20.5523 25.3927 20.825C24.9259 21.0977 24.3928 21.2363 23.8522 21.2253C23.3123 21.2366 22.7798 21.0989 22.313 20.8273C21.8463 20.5557 21.4634 20.1607 21.2065 19.6857C20.9499 20.1605 20.5674 20.5554 20.101 20.827C19.6346 21.0987 19.1024 21.2365 18.5628 21.2253C18.3155 21.225 18.0691 21.1956 17.8287 21.1378V30H19.7921V25.2576C19.7969 24.3948 20.144 23.5692 20.7573 22.9623C21.3705 22.3554 22.1997 22.0168 23.0625 22.0211C23.9248 22.0173 24.7534 22.3558 25.3664 22.9622C25.9795 23.5685 26.3271 24.3933 26.3329 25.2556V29.998H35.3263V21.096C35.0348 21.1808 34.7328 21.2236 34.4292 21.2234C33.8894 21.2342 33.3571 21.0958 32.891 20.8234C32.4249 20.551 32.043 20.1553 31.7874 19.6797ZM34.6739 23.1251V28.522C34.6739 28.652 34.6224 28.7766 34.5307 28.8687C34.4389 28.9608 34.3145 29.0128 34.1845 29.0133H28.7856C28.6555 29.0128 28.5308 28.9609 28.4388 28.8688C28.3467 28.7768 28.2948 28.6521 28.2943 28.522V23.1251C28.2948 22.9951 28.3468 22.8707 28.4389 22.7789C28.531 22.6872 28.6557 22.6357 28.7856 22.6357H34.1746C34.2395 22.6347 34.304 22.6466 34.3643 22.6707C34.4246 22.6948 34.4795 22.7307 34.5257 22.7762C34.572 22.8218 34.6088 22.8761 34.6339 22.936C34.659 22.9959 34.6719 23.0602 34.6719 23.1251H34.6739Z" fill="#B2B2B2"/>
<path d="M20.5261 18.7109H16.5993C16.7002 19.1528 16.9508 19.5461 17.3087 19.8242C17.6666 20.1024 18.1096 20.2481 18.5627 20.2367C19.0157 20.2477 19.4586 20.1018 19.8164 19.8238C20.1742 19.5457 20.4249 19.1526 20.5261 18.7109Z" fill="#B2B2B2"/>
<path d="M23.8521 20.2307C24.3049 20.2416 24.7475 20.0957 25.1049 19.8176C25.4624 19.5396 25.7127 19.1465 25.8136 18.705H21.8887C21.9896 19.1468 22.2403 19.5402 22.5981 19.8183C22.956 20.0964 23.3991 20.2421 23.8521 20.2307Z" fill="#B2B2B2"/>
<path d="M29.1396 20.2307C29.5926 20.2421 30.0357 20.0964 30.3936 19.8183C30.7514 19.5402 31.0021 19.1468 31.103 18.705H27.1761C27.2777 19.1465 27.5285 19.5394 27.8862 19.8174C28.244 20.0953 28.6867 20.2413 29.1396 20.2307Z" fill="#B2B2B2"/>
<path d="M32.4657 18.7109C32.5669 19.1526 32.8177 19.5457 33.1754 19.8238C33.5332 20.1018 33.9761 20.2477 34.4291 20.2367C34.8821 20.2477 35.325 20.1018 35.6828 19.8238C36.0406 19.5457 36.2913 19.1526 36.3925 18.7109H32.4657Z" fill="#B2B2B2"/>
<path d="M26.5973 11.842L25.2068 7.50342L22.2726 8.44434L23.3608 11.842H26.5973Z" fill="#B2B2B2"/>
<path d="M23.6831 12.8465L23.7567 12.8226H23.6751L23.6831 12.8465Z" fill="#B2B2B2"/>
<path d="M12.7023 2.5381C11.8987 2.25527 11.0555 2.10087 10.2038 2.08057C10.0407 2.08057 9.87158 2.10842 9.80593 2.27949C9.7683 2.47664 9.7683 2.67913 9.80593 2.87627C9.83776 3.32585 9.87755 3.77343 9.92131 4.22301C10.105 6.05775 10.3839 7.88171 10.7568 9.68753C10.9677 10.718 11.209 11.7411 11.4809 12.757C11.4883 12.785 11.5043 12.8101 11.5267 12.8286C11.5267 12.8704 11.5267 12.9141 11.5267 12.9559C11.5386 13.1329 11.8171 13.1548 11.8032 12.9698C11.6179 10.2804 11.7824 7.57828 12.2925 4.93119C12.4357 4.18587 12.6062 3.44586 12.8038 2.71116C12.8086 2.69313 12.8097 2.67434 12.8072 2.65586C12.8047 2.63738 12.7985 2.61958 12.7891 2.60349C12.7797 2.5874 12.7671 2.57334 12.7522 2.56211C12.7374 2.55089 12.7204 2.54273 12.7023 2.5381Z" fill="#B2B2B2"/>
<path d="M10.1898 17.768C9.87154 17.7322 9.54928 17.7123 9.231 17.6844C8.80529 17.6486 8.3776 17.6188 7.9519 17.5869C7.58189 16.837 7.19001 16.097 6.75834 15.3788C6.74161 15.3553 6.71995 15.3357 6.69488 15.3214C6.6698 15.307 6.64191 15.2984 6.61314 15.2959C6.58437 15.2934 6.55541 15.2973 6.52827 15.3071C6.50112 15.317 6.47645 15.3326 6.45597 15.353C6.41419 15.3579 6.37465 15.3745 6.34191 15.4009C6.30917 15.4273 6.28458 15.4624 6.27097 15.5022C6.00242 16.1487 5.75774 16.8052 5.52499 17.4636C4.85097 17.4605 4.18033 17.559 3.53572 17.756C3.48185 17.7723 3.43384 17.8038 3.39754 17.8468C3.36125 17.8898 3.33822 17.9424 3.33127 17.9982C3.32431 18.0541 3.33373 18.1107 3.35837 18.1613C3.38301 18.2119 3.42182 18.2542 3.47007 18.2832L4.91429 19.3236C4.66165 20.1591 4.42891 21.0005 4.23197 21.8519C4.21901 21.9065 4.22221 21.9636 4.24119 22.0163C4.26017 22.069 4.2941 22.1151 4.33883 22.1489C4.38357 22.1826 4.43717 22.2026 4.49308 22.2064C4.549 22.2102 4.60481 22.1976 4.65369 22.1702C5.4494 21.7485 6.23118 21.3049 7.00699 20.8493C7.56807 21.3102 8.19675 21.6819 8.87094 21.9514C8.91944 21.9631 8.97015 21.9621 9.01817 21.9486C9.06618 21.935 9.10989 21.9092 9.14508 21.8739C9.18026 21.8385 9.20573 21.7946 9.21904 21.7465C9.23235 21.6984 9.23304 21.6477 9.22105 21.5993C9.04997 21.0125 8.85702 20.4336 8.64616 19.8607C9.11164 19.5683 9.57912 19.2738 10.0386 18.9695C10.3291 18.7706 10.898 18.4801 10.6792 18.0385C10.6286 17.9544 10.5567 17.8851 10.4708 17.8376C10.3849 17.7902 10.288 17.7661 10.1898 17.768Z" fill="#B2B2B2"/>
<path d="M19.0999 4.20519C18.8283 4.00999 18.537 3.84396 18.2306 3.70986C18.1089 3.64069 17.9726 3.60116 17.8327 3.59448C17.7665 3.60587 17.7039 3.63269 17.65 3.67278C17.5961 3.71287 17.5524 3.7651 17.5224 3.82524C17.1472 4.36757 16.8076 4.93371 16.5059 5.52009C15.9099 6.66866 15.4506 7.8831 15.1373 9.13857C15.0199 9.616 14.9264 10.0994 14.8508 10.5868C14.823 10.6842 14.7951 10.7857 14.7693 10.8812C14.7636 10.9012 14.7629 10.9223 14.767 10.9427C14.7712 10.9631 14.7801 10.9823 14.7931 10.9985C14.7792 11.104 14.7653 11.2114 14.7533 11.3168C14.7334 11.4959 15.0119 11.4959 15.0318 11.3168C15.0537 11.106 15.0836 10.8971 15.1134 10.6882C15.6419 8.80554 16.5945 7.06892 17.8984 5.6116C18.2801 5.18647 18.6901 4.7877 19.1257 4.41804C19.1398 4.40317 19.1504 4.38538 19.1569 4.36593C19.1633 4.34649 19.1653 4.32587 19.1628 4.30554C19.1604 4.28521 19.1534 4.26568 19.1426 4.24833C19.1317 4.23099 19.1171 4.21626 19.0999 4.20519Z" fill="#B2B2B2"/>
<path d="M3.93759 8.98741C3.30053 8.55959 2.636 8.17417 1.94832 7.83363C1.93254 7.82325 1.91486 7.81609 1.89629 7.81257C1.87773 7.80904 1.85865 7.80924 1.84016 7.81312C1.82167 7.817 1.80413 7.8245 1.78856 7.83519C1.77298 7.84588 1.75967 7.85955 1.74939 7.87541C1.19638 8.73743 0.655294 9.60475 0.126149 10.4774C0.11311 10.5004 0.106701 10.5266 0.107633 10.553C0.108565 10.5794 0.116803 10.6051 0.13143 10.6272C0.146057 10.6492 0.1665 10.6668 0.190499 10.6779C0.214497 10.689 0.241109 10.6933 0.267385 10.6902C0.276767 10.7126 0.292525 10.7317 0.312691 10.7451C0.332857 10.7585 0.356538 10.7658 0.380775 10.7658C3.09016 10.8553 5.6404 11.9375 7.91016 13.3519C8.55269 13.7497 9.17732 14.1874 9.78803 14.6389C9.91534 14.7324 10.0705 14.5434 9.96706 14.4281C8.13097 12.4487 6.20933 10.4953 3.93759 8.98741Z" fill="#B2B2B2"/>
<path d="M14.4966 20.4992C14.234 20.4356 13.9694 20.3799 13.7009 20.3242C13.6739 20.1635 13.6367 20.0047 13.5895 19.8487C13.5895 19.8368 13.5895 19.8229 13.5895 19.8109C13.5765 19.7226 13.5453 19.638 13.498 19.5623C13.4878 19.545 13.4733 19.5306 13.4558 19.5206C13.4384 19.5106 13.4186 19.5054 13.3985 19.5054C13.3784 19.5054 13.3587 19.5106 13.3412 19.5206C13.3238 19.5306 13.3092 19.545 13.2991 19.5623C13.1737 19.7612 13.0424 19.9601 12.9012 20.1591C12.7142 20.1252 12.5272 20.0874 12.3402 20.0556C12.3043 20.048 12.267 20.0521 12.2335 20.0671C12.2001 20.0822 12.1723 20.1074 12.1541 20.1393C12.136 20.1712 12.1284 20.208 12.1326 20.2444C12.1367 20.2809 12.1523 20.3151 12.1771 20.3421C12.3158 20.5145 12.4653 20.678 12.6247 20.8314C12.5431 21.0304 12.4656 21.2293 12.4039 21.4282C12.3984 21.4555 12.3998 21.4837 12.4079 21.5103C12.4159 21.537 12.4305 21.5612 12.4501 21.5809C12.4698 21.6006 12.494 21.6151 12.5207 21.6231C12.5473 21.6312 12.5755 21.6326 12.6028 21.6271C12.8422 21.5661 13.0779 21.4917 13.309 21.4043C13.4662 21.5137 13.6273 21.6152 13.7944 21.7087C13.8241 21.7252 13.8581 21.7324 13.892 21.7294C13.9259 21.7265 13.9581 21.7135 13.9846 21.6922C14.0111 21.6708 14.0306 21.6421 14.0406 21.6096C14.0507 21.5771 14.0508 21.5423 14.0411 21.5098C14.0129 21.3793 13.9777 21.2505 13.9356 21.1238C14.1402 21.0237 14.3394 20.9128 14.5324 20.7916C14.556 20.7735 14.5744 20.7496 14.5859 20.7221C14.5974 20.6947 14.6016 20.6647 14.598 20.6352C14.5943 20.6057 14.5831 20.5776 14.5653 20.5538C14.5475 20.5299 14.5239 20.5111 14.4966 20.4992Z" fill="#B2B2B2"/>
<path d="M12.762 26.9943C12.7004 26.7838 12.6035 26.5854 12.4755 26.4074C12.4238 26.3219 12.3661 26.2403 12.3104 26.1568L12.8515 25.5381C12.9231 25.4565 12.9132 25.2875 12.7799 25.2676C12.3851 25.2064 11.9855 25.1824 11.5863 25.196C11.4013 24.9732 11.2123 24.7563 11.0074 24.5534C10.9774 24.5253 10.9407 24.5052 10.9008 24.4952C10.8609 24.4851 10.8191 24.4853 10.7793 24.4959C10.7395 24.5064 10.7031 24.5269 10.6734 24.5554C10.6437 24.5839 10.6217 24.6195 10.6096 24.6589C10.5127 25.001 10.452 25.3524 10.4286 25.7072C10.168 25.7748 9.90738 25.8504 9.65275 25.9419C9.60269 25.9571 9.55858 25.9875 9.52651 26.0288C9.49444 26.0702 9.47599 26.1204 9.47371 26.1727C9.42398 26.6402 10.0287 26.7854 10.3569 26.9008L10.4982 26.9485C10.5289 27.1309 10.5694 27.3115 10.6195 27.4896C10.631 27.5294 10.6524 27.5656 10.6818 27.5948C10.7111 27.624 10.7475 27.6452 10.7874 27.6563C10.8272 27.6675 10.8693 27.6683 10.9096 27.6586C10.9498 27.6489 10.987 27.6291 11.0174 27.601C11.1268 27.4816 11.2283 27.3563 11.3297 27.229L11.8509 27.406C12.0498 27.4717 12.3164 27.605 12.5312 27.5294C12.6267 27.4818 12.7022 27.402 12.7445 27.304C12.7867 27.2061 12.7929 27.0963 12.762 26.9943Z" fill="#B2B2B2"/>
</svg>
