<svg width="12" height="12" viewBox="0 0 12 12" fill="none" xmlns="http://www.w3.org/2000/svg">
<path fill-rule="evenodd" clip-rule="evenodd" d="M2.66658 10.9888C3.65328 11.6481 4.81331 12 6 12C7.59078 11.9983 9.11593 11.3656 10.2408 10.2408C11.3656 9.11593 11.9983 7.59078 12 6C12 4.81331 11.6481 3.65327 10.9888 2.66658C10.3295 1.67988 9.39246 0.910849 8.2961 0.456723C7.19975 0.00259727 5.99334 -0.116219 4.82946 0.115292C3.66557 0.346803 2.59648 0.918247 1.75736 1.75736C0.918246 2.59648 0.346802 3.66558 0.115291 4.82946C-0.11622 5.99335 0.00259967 7.19975 0.456725 8.2961C0.910851 9.39246 1.67989 10.3295 2.66658 10.9888ZM3.16586 1.75841C4.00477 1.19787 4.99105 0.89868 6 0.89868C7.35248 0.900219 8.64913 1.43817 9.60548 2.39452C10.5618 3.35087 11.0998 4.64752 11.1013 6C11.1013 7.00895 10.8021 7.99524 10.2416 8.83414C9.68105 9.67305 8.88434 10.3269 7.95219 10.713C7.02005 11.0991 5.99434 11.2001 5.00478 11.0033C4.01522 10.8065 3.10626 10.3206 2.39282 9.60718C1.67939 8.89375 1.19354 7.98478 0.996701 6.99522C0.799865 6.00566 0.900888 4.97995 1.28699 4.04781C1.6731 3.11566 2.32695 2.31895 3.16586 1.75841ZM9.27148 8.9476C9.3429 8.98155 9.42254 8.99953 9.50351 9L9.50116 8.9979C9.61253 8.99744 9.72055 8.96399 9.80817 8.90283C9.89579 8.84167 9.95802 8.75628 9.98504 8.66015C10.012 8.56403 10.0023 8.46263 9.95734 8.37198C9.91237 8.28133 9.83475 8.20658 9.73673 8.15955L7.00117 6.88315V3.44538C7.00117 3.32725 6.94843 3.21397 6.85455 3.13045C6.76068 3.04693 6.63335 3 6.50059 3C6.36782 3 6.2405 3.04693 6.14662 3.13045C6.05274 3.21397 6 3.32725 6 3.44538V7.15143C5.99996 7.23268 6.02491 7.3124 6.07214 7.38195C6.11937 7.4515 6.18709 7.50822 6.26796 7.54598L9.27148 8.9476Z" fill="#FF6400"/>
</svg>
