<svg width="23" height="25" viewBox="0 0 23 25" fill="none" xmlns="http://www.w3.org/2000/svg">
<path d="M22.4528 21.9045C21.4852 17.0919 18.3394 14.2085 15.6658 12.577C16.7938 11.6824 17.6213 10.4471 18.0324 9.0443C18.4435 7.64154 18.4175 6.14162 17.958 4.75482C17.4986 3.36802 16.6287 2.16387 15.4704 1.31118C14.3121 0.458485 12.9234 0 11.499 0C10.0746 0 8.68595 0.458485 7.52764 1.31118C6.36934 2.16387 5.49949 3.36802 5.04005 4.75482C4.58061 6.14162 4.55461 7.64154 4.96568 9.0443C5.37676 10.4471 6.2043 11.6824 7.33231 12.577C4.67199 14.2017 1.54613 17.0612 0.558487 21.8292C0.477628 22.2101 0.480654 22.6047 0.567296 22.9842C0.653937 23.3637 0.822027 23.7184 1.05924 24.0225C1.29646 24.3265 1.5968 24.572 1.93825 24.7412C2.2797 24.9103 2.65361 24.9987 3.0326 25H19.9655C20.339 25.0016 20.7082 24.9179 21.0464 24.755C21.3847 24.5921 21.6836 24.3539 21.9215 24.0578C22.1595 23.7617 22.3306 23.4149 22.4224 23.0426C22.5143 22.6702 22.5247 22.2815 22.4528 21.9045Z" fill="#B2B2B2"/>
</svg>
